<?xml version="1.0" standalone="no"?>
<!DOCTYPE svg PUBLIC "-//W3C//DTD SVG 20010904//EN"
 "http://www.w3.org/TR/2001/REC-SVG-20010904/DTD/svg10.dtd">
<svg version="1.0" xmlns="http://www.w3.org/2000/svg"
 width="811.000000pt" height="811.000000pt" viewBox="0 0 811.000000 811.000000"
 preserveAspectRatio="xMidYMid meet">
<metadata>
Created by potrace 1.11, written by Peter Selinger 2001-2013
</metadata>
<g transform="translate(0.000000,811.000000) scale(0.100000,-0.100000)"
fill="#000000" stroke="none">
<path d="M3994 6863 c-27 -31 -78 -91 -114 -132 -36 -42 -69 -81 -75 -87 -14
-15 -102 -115 -270 -309 -81 -93 -170 -197 -199 -229 -28 -33 -71 -82 -95
-110 -24 -28 -55 -65 -70 -81 -14 -17 -71 -82 -126 -145 -55 -63 -112 -128
-126 -145 -40 -45 -177 -203 -235 -271 -74 -84 -467 -538 -529 -609 -29 -33
-115 -132 -191 -220 -76 -88 -143 -165 -149 -171 -5 -6 -32 -37 -60 -70 -27
-32 -99 -114 -160 -184 -60 -69 -133 -153 -161 -185 -185 -214 -280 -324 -303
-350 -50 -57 -297 -340 -426 -490 -71 -82 -131 -152 -134 -155 -4 -3 -62 -70
-131 -150 -69 -80 -129 -150 -135 -156 -5 -6 -32 -37 -60 -69 -27 -32 -55 -63
-60 -69 -6 -6 -37 -42 -70 -81 -33 -38 -62 -72 -65 -75 -3 -3 -16 -17 -29 -32
l-24 -27 1392 2 c1251 3 1391 1 1392 -12 3 -53 39 -190 65 -248 8 -17 14 -34
14 -38 0 -4 19 -44 41 -88 149 -297 415 -527 729 -631 159 -53 249 -66 430
-61 174 4 187 5 320 42 329 90 621 326 782 633 57 109 105 243 122 343 3 15 7
35 11 45 5 18 56 19 1385 18 758 -1 1388 1 1398 4 17 4 -3 31 -120 165 -77 88
-163 187 -191 220 -29 32 -59 66 -67 75 -8 9 -55 63 -105 120 -49 58 -92 107
-95 110 -3 3 -32 37 -65 75 -33 39 -62 72 -65 75 -7 7 -187 214 -270 310 -36
41 -67 77 -70 80 -3 3 -62 70 -130 150 -69 80 -130 150 -136 155 -6 6 -53 60
-105 120 -51 61 -96 112 -99 115 -3 3 -51 57 -105 120 -55 63 -112 129 -127
145 -14 17 -77 89 -138 160 -62 72 -139 159 -170 195 -59 67 -130 149 -166
191 -21 25 -150 173 -201 230 -66 75 -183 210 -273 314 -52 61 -109 126 -126
145 -29 32 -97 109 -244 280 -30 35 -122 140 -204 234 -82 94 -203 234 -270
310 -67 76 -125 144 -131 150 -8 9 -78 89 -150 173 -5 6 -29 33 -52 60 -23 26
-61 70 -85 97 -24 26 -47 55 -51 62 -13 22 -21 17 -73 -43z m17 -1669 c0 -676
0 -1284 -1 -1350 l0 -122 -39 0 c-36 -1 -82 -6 -156 -18 -54 -9 -181 -43 -219
-59 -21 -9 -40 -15 -41 -13 -2 2 -17 39 -34 83 -18 44 -36 89 -41 100 -5 11
-29 70 -53 130 -106 264 -340 843 -352 870 -7 17 -43 105 -80 198 -74 186 -74
172 -8 242 15 17 66 76 113 130 46 55 91 107 100 115 8 8 56 62 105 120 49 58
102 119 116 135 45 51 247 283 419 482 91 105 166 190 168 188 2 -1 3 -556 3
-1231z m244 1045 c82 -94 154 -177 160 -183 5 -6 98 -112 205 -236 107 -124
199 -230 205 -236 45 -50 85 -94 109 -124 16 -19 54 -64 86 -100 31 -36 78
-89 104 -118 25 -29 46 -56 46 -61 0 -8 -89 -232 -110 -276 -9 -20 -230 -557
-315 -765 -140 -345 -200 -490 -211 -508 -1 -2 -46 10 -99 27 -53 17 -112 34
-132 37 -19 3 -45 8 -57 10 -11 2 -48 7 -81 10 -33 3 -62 8 -64 10 -3 3 -5
2671 -2 2682 2 7 21 -13 156 -169z m-1325 -1289 c34 -85 77 -191 95 -235 18
-44 85 -208 148 -365 126 -312 135 -336 148 -365 5 -11 42 -103 83 -205 l74
-185 -58 -31 c-153 -81 -329 -242 -429 -389 -30 -44 -58 -84 -62 -89 -7 -8
-103 43 -279 149 -47 29 -106 63 -130 77 -25 14 -106 61 -180 105 -74 44 -244
144 -377 223 -134 78 -243 145 -243 149 0 6 230 275 334 391 17 19 74 85 126
145 52 61 99 115 105 121 14 16 46 53 150 174 50 57 97 111 105 120 8 9 40 45
70 80 134 157 253 290 255 288 2 -2 31 -73 65 -158z m2539 -105 c139 -161 194
-223 226 -259 6 -6 37 -42 70 -81 33 -38 96 -110 139 -160 89 -101 94 -108
226 -260 52 -60 111 -128 131 -150 60 -66 89 -102 89 -112 0 -6 -10 -14 -22
-20 -13 -6 -156 -93 -318 -193 -649 -402 -862 -532 -865 -528 -2 1 -27 39 -56
83 -59 88 -213 250 -299 312 -31 22 -82 55 -115 73 -33 19 -61 35 -63 36 -3 2
176 444 213 529 8 17 35 82 60 145 26 63 53 129 60 145 7 17 43 104 80 195 37
91 75 183 84 205 10 22 42 100 72 173 l54 133 39 -43 c21 -24 109 -124 195
-223z m1141 -1310 c101 -115 237 -273 304 -350 66 -77 123 -142 126 -145 16
-14 410 -470 410 -475 0 -3 -484 -5 -1075 -5 l-1075 0 0 23 c-2 84 -57 299
-97 377 -19 36 -16 48 15 64 15 8 290 177 611 375 322 199 588 358 592 354 3
-5 89 -102 189 -218z m-4607 -17 c188 -111 351 -206 362 -212 11 -6 76 -45
145 -86 142 -85 144 -86 274 -160 52 -30 96 -59 96 -65 0 -5 -13 -42 -29 -81
-33 -81 -67 -212 -77 -296 l-6 -58 -47 0 c-1540 -4 -2061 -3 -2062 3 -1 7 179
220 235 280 6 7 51 59 101 117 49 58 92 107 95 110 3 3 30 34 60 70 30 36 60
69 66 75 6 5 53 60 104 120 52 61 101 117 109 126 9 9 39 42 66 74 45 53 103
120 144 168 9 9 17 17 19 17 1 0 157 -91 345 -202z m2197 -102 c194 -36 402
-146 534 -283 163 -170 262 -391 272 -608 l5 -100 -148 -97 c-170 -110 -227
-141 -305 -161 -121 -32 -231 -1 -321 90 -41 41 -167 215 -167 230 0 2 -20 30
-44 61 -118 154 -236 216 -396 207 -123 -6 -231 -50 -444 -179 -60 -36 -113
-66 -118 -66 -29 0 29 234 88 359 138 292 426 507 734 547 25 4 46 8 48 9 6 5
227 -3 262 -9z m-441 -757 c93 -31 152 -89 268 -263 110 -166 187 -247 273
-289 60 -29 73 -31 165 -31 89 0 109 4 182 33 48 19 139 70 217 122 74 49 136
89 139 89 2 0 -1 -28 -9 -62 -98 -466 -513 -795 -981 -782 -417 11 -773 277
-906 674 -26 79 -33 109 -43 202 l-6 57 44 22 c24 12 84 47 133 77 248 151
394 193 524 151z"/>
</g>
</svg>
